<?xml version="1.0" encoding="utf-8"?>
<!-- Generator: Adobe Illustrator 27.5.0, SVG Export Plug-In . SVG Version: 6.00 Build 0)  -->
<svg version="1.1" id="Capa_1" xmlns="http://www.w3.org/2000/svg" xmlns:xlink="http://www.w3.org/1999/xlink" x="0px" y="0px"
	 viewBox="0 0 600 600" style="enable-background:new 0 0 600 600;" xml:space="preserve">
<style type="text/css">
	.st0{fill:url(#SVGID_1_);}
	.st1{fill:#FFFFFF;}
	.st2{fill:#FFFFFF;stroke:#E7247B;stroke-miterlimit:10;}
	.st3{font-family:'TwCenMT-CondensedExtraBold';}
	.st4{font-size:828.3966px;}
</style>
<linearGradient id="SVGID_1_" gradientUnits="userSpaceOnUse" x1="300" y1="0.11" x2="300" y2="600.11" gradientTransform="matrix(1 0 0 -1 0 600.11)">
	<stop  offset="5.025126e-03" style="stop-color:#2C3587"/>
	<stop  offset="1" style="stop-color:#569632"/>
</linearGradient>
<path class="st0" d="M398.98,0H201.02c-36.46,0-70.14,21.34-88.38,55.97L13.67,244.04c-18.22,34.63-18.22,77.32,0,111.95
	l98.98,188.04c18.22,34.63,51.92,55.97,88.38,55.97h197.95c36.46,0,70.14-21.34,88.38-55.97l98.98-188.06
	c18.22-34.63,18.22-77.32,0-111.95L487.36,55.95C469.11,21.34,435.42,0,398.98,0z"/>
<g>
	<path class="st1" d="M248,59.83c-59.64,1.04-108.7,43.7-142.11,89.73c-22.19,31.26-40.97,66.11-49.41,103.67
		c-1.39,7.48-4.01,22.1,1.32,27.96c3.37,2.65,8.6-0.24,12.14-2.16c9.98-6.07,18.18-14.56,26.27-23.26
		c6.46-7.08,12.6-14.52,18.56-22.11c12.04-15.21,23.06-31.39,34.18-47.28c12.08-16.21,27.25-29.64,43.44-41.47
		c68.2-49.89,202.88-95.8,284.45-62.55c50.75,21.8,56.48,70.95,41.21,118.69c-17.03,55.87-48.18,108.75-95.31,144.49
		c-65.05,50.61-150.34,61.54-230.05,64.23c-14.4,0.7-28.53,1.15-42.58,2.72c-7.34,1.04-14.81,1.7-20.93,5.01
		c-0.32,0.2-0.46,0.35-0.49,0.39c0.02,0.03,0.1-0.05,0.3-0.28c0.05-0.08,0.17-0.19,0.21-0.3c-0.35,0.61-0.64,1.32-0.8,1.88
		c-0.16,0.6-0.14,0.88-0.11,1.13c0.04,0.24,0.1,0.52,0.35,1.09c4.46,7.94,15.58,13.87,24.13,18.26
		c42.2,19.72,89.32,28.86,135.2,37.42c56.51,9.75,114.1,16.47,171.37,19.01c13.97,0.53,27.86,0.84,41.57,0.08
		c3.8-0.14,7.8-0.64,11.02-1.25c0,0,9.16,45.8,9.16,45.8c-3.67,0.69-6.7,1-9.63,1.26c-18.25,1.36-36.51,0.35-54.5-0.72
		c-59.48-4.14-118.13-12.49-176.56-24.09c-39.31-8.09-77.97-17.28-115.87-31.66c-22.33-8.93-48.88-20.37-63.78-40.61
		c-9.07-12.31-11.05-28.7-3.8-42.51c11.35-23.43,42.8-23.83,65.06-25.2c84.54-1.75,173.22-1.51,244.35-53.56
		c37.73-27.18,65.11-66.78,82.37-109.78c6.72-16.76,13.22-34.78,14.55-52.75c4.6-53.78-42.41-69.9-87.74-71.49
		c-78.67-2.04-178.49,31.43-238.22,83.16c-8.86,7.87-16.87,16.46-23.6,26.1c0,0-4.29,5.97-4.29,5.97
		c-8.64,11.92-17.52,23.64-26.87,35.05c-13.5,15.97-36.02,43.36-56,49.81c-15.94,4.41-20.71-9.86-19.58-22.98
		c1.09-15.09,5.92-29.51,11.3-43.41c18.56-45.41,46.91-87.21,83.63-119.84C171.11,77.74,208.31,58.4,248,58.83
		C248,58.83,248,59.83,248,59.83L248,59.83z"/>
</g>
<text transform="matrix(1.4072 0 0 1 106.667 556.1025)" class="st2 st3 st4">J</text>
</svg>
